<mxfile host="65bd71144e">
    <diagram id="QrAmwz1xb5jmMaR3mzbJ" name="第 1 页">
        <mxGraphModel dx="358" dy="437" grid="0" gridSize="10" guides="1" tooltips="1" connect="1" arrows="1" fold="1" page="0" pageScale="1" pageWidth="827" pageHeight="1169" math="0" shadow="0">
            <root>
                <mxCell id="0"/>
                <mxCell id="1" parent="0"/>
                <mxCell id="20" value="" style="rounded=0;whiteSpace=wrap;html=1;fontSize=13;fontStyle=0" parent="1" vertex="1">
                    <mxGeometry x="120" y="97" width="612" height="175" as="geometry"/>
                </mxCell>
                <mxCell id="2" value="uart_byte_rx" style="rounded=0;whiteSpace=wrap;html=1;fontSize=13;fontStyle=0" parent="1" vertex="1">
                    <mxGeometry x="144" y="158" width="120" height="60" as="geometry"/>
                </mxCell>
                <mxCell id="3" value="uart_cmd" style="rounded=0;whiteSpace=wrap;html=1;fontSize=13;fontStyle=0" parent="1" vertex="1">
                    <mxGeometry x="349" y="158" width="120" height="60" as="geometry"/>
                </mxCell>
                <mxCell id="4" value="counter_led" style="rounded=0;whiteSpace=wrap;html=1;fontSize=13;fontStyle=0" parent="1" vertex="1">
                    <mxGeometry x="596" y="158" width="120" height="60" as="geometry"/>
                </mxCell>
                <mxCell id="6" value="" style="endArrow=open;html=1;exitX=1;exitY=0.25;exitDx=0;exitDy=0;entryX=0;entryY=0.25;entryDx=0;entryDy=0;strokeWidth=1;sketch=0;startArrow=none;startFill=0;endFill=0;fontSize=13;fontStyle=0" parent="1" source="2" target="3" edge="1">
                    <mxGeometry width="50" height="50" relative="1" as="geometry">
                        <mxPoint x="258" y="138" as="sourcePoint"/>
                        <mxPoint x="319" y="173" as="targetPoint"/>
                    </mxGeometry>
                </mxCell>
                <mxCell id="10" value="[7:0]rx_data" style="text;html=1;strokeColor=none;fillColor=none;align=center;verticalAlign=middle;whiteSpace=wrap;rounded=0;fontSize=13;fontStyle=0" parent="1" vertex="1">
                    <mxGeometry x="276" y="150" width="60" height="30" as="geometry"/>
                </mxCell>
                <mxCell id="11" value="" style="endArrow=open;html=1;exitX=1;exitY=0.75;exitDx=0;exitDy=0;entryX=0;entryY=0.75;entryDx=0;entryDy=0;endFill=0;fontSize=13;fontStyle=0" parent="1" source="2" target="3" edge="1">
                    <mxGeometry width="50" height="50" relative="1" as="geometry">
                        <mxPoint x="277" y="270" as="sourcePoint"/>
                        <mxPoint x="327" y="220" as="targetPoint"/>
                    </mxGeometry>
                </mxCell>
                <mxCell id="12" value="rx_done" style="text;html=1;strokeColor=none;fillColor=none;align=center;verticalAlign=middle;whiteSpace=wrap;rounded=0;fontSize=13;fontStyle=0" parent="1" vertex="1">
                    <mxGeometry x="276" y="180" width="60" height="30" as="geometry"/>
                </mxCell>
                <mxCell id="14" value="" style="endArrow=open;html=1;sketch=0;strokeWidth=1;exitX=1;exitY=0.25;exitDx=0;exitDy=0;entryX=0;entryY=0.25;entryDx=0;entryDy=0;endFill=0;fontSize=13;fontStyle=0" parent="1" source="3" target="4" edge="1">
                    <mxGeometry width="50" height="50" relative="1" as="geometry">
                        <mxPoint x="477" y="152" as="sourcePoint"/>
                        <mxPoint x="527" y="102" as="targetPoint"/>
                    </mxGeometry>
                </mxCell>
                <mxCell id="15" value="" style="endArrow=open;html=1;sketch=0;strokeWidth=1;exitX=1;exitY=0.75;exitDx=0;exitDy=0;entryX=0;entryY=0.75;entryDx=0;entryDy=0;endFill=0;fontSize=13;fontStyle=0" parent="1" source="3" target="4" edge="1">
                    <mxGeometry width="50" height="50" relative="1" as="geometry">
                        <mxPoint x="492" y="285" as="sourcePoint"/>
                        <mxPoint x="542" y="235" as="targetPoint"/>
                    </mxGeometry>
                </mxCell>
                <mxCell id="16" value="[7:0]led_ctrl" style="text;html=1;strokeColor=none;fillColor=none;align=center;verticalAlign=middle;whiteSpace=wrap;rounded=0;fontSize=13;fontStyle=0" parent="1" vertex="1">
                    <mxGeometry x="502" y="150" width="60" height="30" as="geometry"/>
                </mxCell>
                <mxCell id="18" value="[31:0]led_time_set" style="text;html=1;strokeColor=none;fillColor=none;align=center;verticalAlign=middle;whiteSpace=wrap;rounded=0;fontSize=13;fontStyle=0" parent="1" vertex="1">
                    <mxGeometry x="502" y="180" width="60" height="30" as="geometry"/>
                </mxCell>
                <mxCell id="21" value="" style="endArrow=open;html=1;sketch=0;strokeWidth=1;entryX=0;entryY=0.5;entryDx=0;entryDy=0;endFill=0;fontSize=13;fontStyle=0" parent="1" target="2" edge="1">
                    <mxGeometry width="50" height="50" relative="1" as="geometry">
                        <mxPoint x="48" y="188" as="sourcePoint"/>
                        <mxPoint x="98" y="177" as="targetPoint"/>
                    </mxGeometry>
                </mxCell>
                <mxCell id="22" value="" style="endArrow=open;html=1;sketch=0;strokeWidth=1;exitX=1;exitY=0.5;exitDx=0;exitDy=0;endFill=0;fontSize=13;fontStyle=0" parent="1" source="4" edge="1">
                    <mxGeometry width="50" height="50" relative="1" as="geometry">
                        <mxPoint x="736" y="202" as="sourcePoint"/>
                        <mxPoint x="786" y="188" as="targetPoint"/>
                    </mxGeometry>
                </mxCell>
                <mxCell id="23" value="uart_rx" style="text;html=1;strokeColor=none;fillColor=none;align=center;verticalAlign=middle;whiteSpace=wrap;rounded=0;fontSize=13;fontStyle=0" parent="1" vertex="1">
                    <mxGeometry x="46" y="158" width="60" height="30" as="geometry"/>
                </mxCell>
                <mxCell id="25" value="led" style="text;html=1;strokeColor=none;fillColor=none;align=center;verticalAlign=middle;whiteSpace=wrap;rounded=0;fontSize=13;fontStyle=0" parent="1" vertex="1">
                    <mxGeometry x="725" y="160" width="60" height="30" as="geometry"/>
                </mxCell>
                <mxCell id="26" value="&lt;font style=&quot;font-size: 16px&quot;&gt;&lt;b&gt;module uart_ctrl_led&lt;/b&gt;&lt;/font&gt;" style="text;html=1;strokeColor=none;fillColor=none;align=center;verticalAlign=middle;whiteSpace=wrap;rounded=0;fontSize=13;" parent="1" vertex="1">
                    <mxGeometry x="333" y="37" width="186" height="30" as="geometry"/>
                </mxCell>
            </root>
        </mxGraphModel>
    </diagram>
    <diagram id="zr7QmjHwi8OyG4CHJgmk" name="第 2 页">
        <mxGraphModel dx="1374" dy="437" grid="0" gridSize="10" guides="1" tooltips="1" connect="1" arrows="1" fold="1" page="0" pageScale="1" pageWidth="827" pageHeight="1169" math="0" shadow="0">
            <root>
                <mxCell id="AKjjPFDx2oKZY4eEEjJ2-0"/>
                <mxCell id="AKjjPFDx2oKZY4eEEjJ2-1" parent="AKjjPFDx2oKZY4eEEjJ2-0"/>
                <mxCell id="AKjjPFDx2oKZY4eEEjJ2-2" value="" style="shape=table;startSize=0;container=1;collapsible=0;childLayout=tableLayout;fontSize=16;" parent="AKjjPFDx2oKZY4eEEjJ2-1" vertex="1">
                    <mxGeometry x="-40" y="183" width="743" height="45" as="geometry"/>
                </mxCell>
                <mxCell id="AKjjPFDx2oKZY4eEEjJ2-3" value="" style="shape=partialRectangle;collapsible=0;dropTarget=0;pointerEvents=0;fillColor=none;top=0;left=0;bottom=0;right=0;points=[[0,0.5],[1,0.5]];portConstraint=eastwest;fontSize=16;" parent="AKjjPFDx2oKZY4eEEjJ2-2" vertex="1">
                    <mxGeometry width="743" height="45" as="geometry"/>
                </mxCell>
                <mxCell id="AKjjPFDx2oKZY4eEEjJ2-4" value="8'h55" style="shape=partialRectangle;html=1;whiteSpace=wrap;connectable=0;overflow=hidden;fillColor=none;top=0;left=0;bottom=0;right=0;pointerEvents=1;fontSize=16;" parent="AKjjPFDx2oKZY4eEEjJ2-3" vertex="1">
                    <mxGeometry width="93" height="45" as="geometry">
                        <mxRectangle width="93" height="45" as="alternateBounds"/>
                    </mxGeometry>
                </mxCell>
                <mxCell id="AKjjPFDx2oKZY4eEEjJ2-5" value="8'h5a" style="shape=partialRectangle;html=1;whiteSpace=wrap;connectable=0;overflow=hidden;fillColor=none;top=0;left=0;bottom=0;right=0;pointerEvents=1;fontSize=16;" parent="AKjjPFDx2oKZY4eEEjJ2-3" vertex="1">
                    <mxGeometry x="93" width="92" height="45" as="geometry">
                        <mxRectangle width="92" height="45" as="alternateBounds"/>
                    </mxGeometry>
                </mxCell>
                <mxCell id="AKjjPFDx2oKZY4eEEjJ2-6" value="[31:24]time" style="shape=partialRectangle;html=1;whiteSpace=wrap;connectable=0;overflow=hidden;fillColor=none;top=0;left=0;bottom=0;right=0;pointerEvents=1;fontSize=16;" parent="AKjjPFDx2oKZY4eEEjJ2-3" vertex="1">
                    <mxGeometry x="185" width="94" height="45" as="geometry">
                        <mxRectangle width="94" height="45" as="alternateBounds"/>
                    </mxGeometry>
                </mxCell>
                <mxCell id="AKjjPFDx2oKZY4eEEjJ2-7" value="[24:16]time" style="shape=partialRectangle;html=1;whiteSpace=wrap;connectable=0;overflow=hidden;fillColor=none;top=0;left=0;bottom=0;right=0;pointerEvents=1;fontSize=16;" parent="AKjjPFDx2oKZY4eEEjJ2-3" vertex="1">
                    <mxGeometry x="279" width="94" height="45" as="geometry">
                        <mxRectangle width="94" height="45" as="alternateBounds"/>
                    </mxGeometry>
                </mxCell>
                <mxCell id="AKjjPFDx2oKZY4eEEjJ2-8" value="[15:8]time" style="shape=partialRectangle;html=1;whiteSpace=wrap;connectable=0;overflow=hidden;fillColor=none;top=0;left=0;bottom=0;right=0;pointerEvents=1;fontSize=16;" parent="AKjjPFDx2oKZY4eEEjJ2-3" vertex="1">
                    <mxGeometry x="373" width="91" height="45" as="geometry">
                        <mxRectangle width="91" height="45" as="alternateBounds"/>
                    </mxGeometry>
                </mxCell>
                <mxCell id="AKjjPFDx2oKZY4eEEjJ2-9" value="[7:0]time" style="shape=partialRectangle;html=1;whiteSpace=wrap;connectable=0;overflow=hidden;fillColor=none;top=0;left=0;bottom=0;right=0;pointerEvents=1;fontSize=16;" parent="AKjjPFDx2oKZY4eEEjJ2-3" vertex="1">
                    <mxGeometry x="464" width="94" height="45" as="geometry">
                        <mxRectangle width="94" height="45" as="alternateBounds"/>
                    </mxGeometry>
                </mxCell>
                <mxCell id="AKjjPFDx2oKZY4eEEjJ2-10" value="[7:0]ctrl" style="shape=partialRectangle;html=1;whiteSpace=wrap;connectable=0;overflow=hidden;fillColor=none;top=0;left=0;bottom=0;right=0;pointerEvents=1;fontSize=16;" parent="AKjjPFDx2oKZY4eEEjJ2-3" vertex="1">
                    <mxGeometry x="558" width="92" height="45" as="geometry">
                        <mxRectangle width="92" height="45" as="alternateBounds"/>
                    </mxGeometry>
                </mxCell>
                <mxCell id="AKjjPFDx2oKZY4eEEjJ2-11" value="8'hf0" style="shape=partialRectangle;html=1;whiteSpace=wrap;connectable=0;overflow=hidden;fillColor=none;top=0;left=0;bottom=0;right=0;pointerEvents=1;fontSize=16;" parent="AKjjPFDx2oKZY4eEEjJ2-3" vertex="1">
                    <mxGeometry x="650" width="93" height="45" as="geometry">
                        <mxRectangle width="93" height="45" as="alternateBounds"/>
                    </mxGeometry>
                </mxCell>
                <mxCell id="NgIrgk5FFi963GoM9Ulb-0" value="" style="shape=curlyBracket;whiteSpace=wrap;html=1;rounded=1;rotation=-90;" vertex="1" parent="AKjjPFDx2oKZY4eEEjJ2-1">
                    <mxGeometry x="42" y="154" width="20" height="184" as="geometry"/>
                </mxCell>
                <mxCell id="NgIrgk5FFi963GoM9Ulb-3" value="帧头" style="text;strokeColor=none;fillColor=none;html=1;fontSize=24;fontStyle=1;verticalAlign=middle;align=center;" vertex="1" parent="AKjjPFDx2oKZY4eEEjJ2-1">
                    <mxGeometry x="2" y="255" width="100" height="40" as="geometry"/>
                </mxCell>
                <mxCell id="NgIrgk5FFi963GoM9Ulb-4" value="" style="shape=curlyBracket;whiteSpace=wrap;html=1;rounded=1;rotation=-90;" vertex="1" parent="AKjjPFDx2oKZY4eEEjJ2-1">
                    <mxGeometry x="648" y="199" width="20" height="94" as="geometry"/>
                </mxCell>
                <mxCell id="NgIrgk5FFi963GoM9Ulb-5" value="帧尾" style="text;strokeColor=none;fillColor=none;html=1;fontSize=24;fontStyle=1;verticalAlign=middle;align=center;" vertex="1" parent="AKjjPFDx2oKZY4eEEjJ2-1">
                    <mxGeometry x="608" y="255" width="100" height="40" as="geometry"/>
                </mxCell>
                <mxCell id="NgIrgk5FFi963GoM9Ulb-7" value="" style="shape=curlyBracket;whiteSpace=wrap;html=1;rounded=1;rotation=90;" vertex="1" parent="AKjjPFDx2oKZY4eEEjJ2-1">
                    <mxGeometry x="367" y="-78.5" width="20" height="461" as="geometry"/>
                </mxCell>
                <mxCell id="NgIrgk5FFi963GoM9Ulb-9" value="数据" style="text;strokeColor=none;fillColor=none;html=1;fontSize=24;fontStyle=1;verticalAlign=middle;align=center;" vertex="1" parent="AKjjPFDx2oKZY4eEEjJ2-1">
                    <mxGeometry x="327" y="104" width="100" height="40" as="geometry"/>
                </mxCell>
            </root>
        </mxGraphModel>
    </diagram>
    <diagram id="ZTTpMF8jGvTZLoMlA9Lu" name="第 3 页">
        <mxGraphModel dx="864" dy="514" grid="0" gridSize="10" guides="1" tooltips="1" connect="1" arrows="1" fold="1" page="0" pageScale="1" pageWidth="827" pageHeight="1169" math="0" shadow="0">
            <root>
                <mxCell id="SxcQ_hiHU2DQo19_phMp-0"/>
                <mxCell id="SxcQ_hiHU2DQo19_phMp-1" parent="SxcQ_hiHU2DQo19_phMp-0"/>
                <mxCell id="SxcQ_hiHU2DQo19_phMp-3" value="" style="shape=table;startSize=0;container=1;collapsible=0;childLayout=tableLayout;" vertex="1" parent="SxcQ_hiHU2DQo19_phMp-1">
                    <mxGeometry x="170" y="205" width="591" height="40" as="geometry"/>
                </mxCell>
                <mxCell id="SxcQ_hiHU2DQo19_phMp-4" value="" style="shape=partialRectangle;collapsible=0;dropTarget=0;pointerEvents=0;fillColor=none;top=0;left=0;bottom=0;right=0;points=[[0,0.5],[1,0.5]];portConstraint=eastwest;" vertex="1" parent="SxcQ_hiHU2DQo19_phMp-3">
                    <mxGeometry width="591" height="40" as="geometry"/>
                </mxCell>
                <mxCell id="SxcQ_hiHU2DQo19_phMp-5" value="uart_data[7]" style="shape=partialRectangle;html=1;whiteSpace=wrap;connectable=0;overflow=hidden;fillColor=none;top=0;left=0;bottom=0;right=0;pointerEvents=1;" vertex="1" parent="SxcQ_hiHU2DQo19_phMp-4">
                    <mxGeometry width="73" height="40" as="geometry">
                        <mxRectangle width="73" height="40" as="alternateBounds"/>
                    </mxGeometry>
                </mxCell>
                <mxCell id="SxcQ_hiHU2DQo19_phMp-6" value="&lt;span&gt;uart_data[6]&lt;/span&gt;" style="shape=partialRectangle;html=1;whiteSpace=wrap;connectable=0;overflow=hidden;fillColor=none;top=0;left=0;bottom=0;right=0;pointerEvents=1;" vertex="1" parent="SxcQ_hiHU2DQo19_phMp-4">
                    <mxGeometry x="73" width="75" height="40" as="geometry">
                        <mxRectangle width="75" height="40" as="alternateBounds"/>
                    </mxGeometry>
                </mxCell>
                <mxCell id="SxcQ_hiHU2DQo19_phMp-7" value="&lt;span&gt;uart_data[5]&lt;/span&gt;" style="shape=partialRectangle;html=1;whiteSpace=wrap;connectable=0;overflow=hidden;fillColor=none;top=0;left=0;bottom=0;right=0;pointerEvents=1;" vertex="1" parent="SxcQ_hiHU2DQo19_phMp-4">
                    <mxGeometry x="148" width="73" height="40" as="geometry">
                        <mxRectangle width="73" height="40" as="alternateBounds"/>
                    </mxGeometry>
                </mxCell>
                <mxCell id="SxcQ_hiHU2DQo19_phMp-8" value="&lt;span&gt;uart_data[4]&lt;/span&gt;" style="shape=partialRectangle;html=1;whiteSpace=wrap;connectable=0;overflow=hidden;fillColor=none;top=0;left=0;bottom=0;right=0;pointerEvents=1;" vertex="1" parent="SxcQ_hiHU2DQo19_phMp-4">
                    <mxGeometry x="221" width="75" height="40" as="geometry">
                        <mxRectangle width="75" height="40" as="alternateBounds"/>
                    </mxGeometry>
                </mxCell>
                <mxCell id="SxcQ_hiHU2DQo19_phMp-9" value="&lt;span&gt;uart_data[3]&lt;/span&gt;" style="shape=partialRectangle;html=1;whiteSpace=wrap;connectable=0;overflow=hidden;fillColor=none;top=0;left=0;bottom=0;right=0;pointerEvents=1;" vertex="1" parent="SxcQ_hiHU2DQo19_phMp-4">
                    <mxGeometry x="296" width="74" height="40" as="geometry">
                        <mxRectangle width="74" height="40" as="alternateBounds"/>
                    </mxGeometry>
                </mxCell>
                <mxCell id="SxcQ_hiHU2DQo19_phMp-10" value="&lt;span&gt;uart_data[2]&lt;/span&gt;" style="shape=partialRectangle;html=1;whiteSpace=wrap;connectable=0;overflow=hidden;fillColor=none;top=0;left=0;bottom=0;right=0;pointerEvents=1;" vertex="1" parent="SxcQ_hiHU2DQo19_phMp-4">
                    <mxGeometry x="370" width="73" height="40" as="geometry">
                        <mxRectangle width="73" height="40" as="alternateBounds"/>
                    </mxGeometry>
                </mxCell>
                <mxCell id="SxcQ_hiHU2DQo19_phMp-11" value="&lt;span&gt;uart_data[1]&lt;/span&gt;" style="shape=partialRectangle;html=1;whiteSpace=wrap;connectable=0;overflow=hidden;fillColor=none;top=0;left=0;bottom=0;right=0;pointerEvents=1;" vertex="1" parent="SxcQ_hiHU2DQo19_phMp-4">
                    <mxGeometry x="443" width="75" height="40" as="geometry">
                        <mxRectangle width="75" height="40" as="alternateBounds"/>
                    </mxGeometry>
                </mxCell>
                <mxCell id="SxcQ_hiHU2DQo19_phMp-12" value="&lt;span&gt;uart_data[0]&lt;/span&gt;" style="shape=partialRectangle;html=1;whiteSpace=wrap;connectable=0;overflow=hidden;fillColor=none;top=0;left=0;bottom=0;right=0;pointerEvents=1;" vertex="1" parent="SxcQ_hiHU2DQo19_phMp-4">
                    <mxGeometry x="518" width="73" height="40" as="geometry">
                        <mxRectangle width="73" height="40" as="alternateBounds"/>
                    </mxGeometry>
                </mxCell>
                <mxCell id="SxcQ_hiHU2DQo19_phMp-13" value="" style="endArrow=classic;html=1;" edge="1" parent="SxcQ_hiHU2DQo19_phMp-1">
                    <mxGeometry width="50" height="50" relative="1" as="geometry">
                        <mxPoint x="170" y="269" as="sourcePoint"/>
                        <mxPoint x="261" y="269" as="targetPoint"/>
                    </mxGeometry>
                </mxCell>
                <mxCell id="SxcQ_hiHU2DQo19_phMp-14" value="data0" style="text;html=1;strokeColor=none;fillColor=none;align=center;verticalAlign=middle;whiteSpace=wrap;rounded=0;" vertex="1" parent="SxcQ_hiHU2DQo19_phMp-1">
                    <mxGeometry x="170" y="287" width="60" height="30" as="geometry"/>
                </mxCell>
                <mxCell id="SxcQ_hiHU2DQo19_phMp-15" value="data1" style="text;html=1;strokeColor=none;fillColor=none;align=center;verticalAlign=middle;whiteSpace=wrap;rounded=0;" vertex="1" parent="SxcQ_hiHU2DQo19_phMp-1">
                    <mxGeometry x="170" y="317" width="60" height="30" as="geometry"/>
                </mxCell>
                <mxCell id="SxcQ_hiHU2DQo19_phMp-16" value="data0" style="text;html=1;strokeColor=none;fillColor=none;align=center;verticalAlign=middle;whiteSpace=wrap;rounded=0;" vertex="1" parent="SxcQ_hiHU2DQo19_phMp-1">
                    <mxGeometry x="247" y="317" width="60" height="30" as="geometry"/>
                </mxCell>
                <mxCell id="SxcQ_hiHU2DQo19_phMp-17" value="data7" style="text;html=1;strokeColor=none;fillColor=none;align=center;verticalAlign=middle;whiteSpace=wrap;rounded=0;" vertex="1" parent="SxcQ_hiHU2DQo19_phMp-1">
                    <mxGeometry x="170" y="407" width="60" height="30" as="geometry"/>
                </mxCell>
                <mxCell id="SxcQ_hiHU2DQo19_phMp-18" value="data6" style="text;html=1;strokeColor=none;fillColor=none;align=center;verticalAlign=middle;whiteSpace=wrap;rounded=0;" vertex="1" parent="SxcQ_hiHU2DQo19_phMp-1">
                    <mxGeometry x="247" y="407" width="60" height="30" as="geometry"/>
                </mxCell>
                <mxCell id="SxcQ_hiHU2DQo19_phMp-19" value="data5" style="text;html=1;strokeColor=none;fillColor=none;align=center;verticalAlign=middle;whiteSpace=wrap;rounded=0;" vertex="1" parent="SxcQ_hiHU2DQo19_phMp-1">
                    <mxGeometry x="325" y="407" width="60" height="30" as="geometry"/>
                </mxCell>
                <mxCell id="SxcQ_hiHU2DQo19_phMp-20" value="data4" style="text;html=1;strokeColor=none;fillColor=none;align=center;verticalAlign=middle;whiteSpace=wrap;rounded=0;" vertex="1" parent="SxcQ_hiHU2DQo19_phMp-1">
                    <mxGeometry x="401" y="407" width="60" height="30" as="geometry"/>
                </mxCell>
                <mxCell id="SxcQ_hiHU2DQo19_phMp-21" value="data3" style="text;html=1;strokeColor=none;fillColor=none;align=center;verticalAlign=middle;whiteSpace=wrap;rounded=0;" vertex="1" parent="SxcQ_hiHU2DQo19_phMp-1">
                    <mxGeometry x="478" y="407" width="60" height="30" as="geometry"/>
                </mxCell>
                <mxCell id="SxcQ_hiHU2DQo19_phMp-22" value="data2" style="text;html=1;strokeColor=none;fillColor=none;align=center;verticalAlign=middle;whiteSpace=wrap;rounded=0;" vertex="1" parent="SxcQ_hiHU2DQo19_phMp-1">
                    <mxGeometry x="555" y="407" width="60" height="30" as="geometry"/>
                </mxCell>
                <mxCell id="SxcQ_hiHU2DQo19_phMp-23" value="data1" style="text;html=1;strokeColor=none;fillColor=none;align=center;verticalAlign=middle;whiteSpace=wrap;rounded=0;" vertex="1" parent="SxcQ_hiHU2DQo19_phMp-1">
                    <mxGeometry x="632" y="407" width="60" height="30" as="geometry"/>
                </mxCell>
                <mxCell id="SxcQ_hiHU2DQo19_phMp-24" value="data0" style="text;html=1;strokeColor=none;fillColor=none;align=center;verticalAlign=middle;whiteSpace=wrap;rounded=0;" vertex="1" parent="SxcQ_hiHU2DQo19_phMp-1">
                    <mxGeometry x="709" y="407" width="60" height="30" as="geometry"/>
                </mxCell>
                <mxCell id="SxcQ_hiHU2DQo19_phMp-25" value="&lt;font style=&quot;font-size: 17px&quot;&gt;&lt;b&gt;...&lt;/b&gt;&lt;/font&gt;" style="text;html=1;strokeColor=none;fillColor=none;align=center;verticalAlign=middle;whiteSpace=wrap;rounded=0;" vertex="1" parent="SxcQ_hiHU2DQo19_phMp-1">
                    <mxGeometry x="165" y="362" width="60" height="30" as="geometry"/>
                </mxCell>
                <mxCell id="SxcQ_hiHU2DQo19_phMp-26" value="reg [7:0] uart_data [7:0];" style="text;html=1;strokeColor=none;fillColor=none;align=center;verticalAlign=middle;whiteSpace=wrap;rounded=0;fontSize=17;" vertex="1" parent="SxcQ_hiHU2DQo19_phMp-1">
                    <mxGeometry x="349" y="166" width="233" height="30" as="geometry"/>
                </mxCell>
            </root>
        </mxGraphModel>
    </diagram>
</mxfile>